<svg xmlns="http://www.w3.org/2000/svg" xmlns:xlink="http://www.w3.org/1999/xlink" width="12" height="12" viewBox="0 0 12 12" fill="none">
<path d="M11 6C11 3.24 8.76 1 6 1C3.24 1 1 3.24 1 6C1 6.68 1.13 7.32 1.38 7.91C1.51 8.22 1.66 8.51 1.84 8.78C1.9 8.87 1.79 9.44 1.5 10.5C2.56 10.21 3.13 10.1 3.22 10.16C3.49 10.34 3.78 10.49 4.09 10.62C4.68 10.87 5.32 11 6 11C8.76 11 11 8.76 11 6Z" stroke="rgba(51, 51, 51, 1.00)" stroke-width="1.3333333333333333" stroke-linejoin="round">
</path>
<path stroke="rgba(51, 51, 51, 1.00)" stroke-width="1.3333333333333333" stroke-linejoin="round" stroke-linecap="round" d="M4.15112 4.95502L8.34595 4.95502">
</path>
<path stroke="rgba(51, 51, 51, 1.00)" stroke-width="1.3333333333333333" stroke-linejoin="round" stroke-linecap="round" d="M5.46158 3.93445L4.73315 8.06555">
</path>
<path stroke="rgba(51, 51, 51, 1.00)" stroke-width="1.3333333333333333" stroke-linejoin="round" stroke-linecap="round" d="M7.21158 3.93445L6.48315 8.06555">
</path>
<path stroke="rgba(51, 51, 51, 1.00)" stroke-width="1.3333333333333333" stroke-linejoin="round" stroke-linecap="round" d="M3.65112 7L7.84595 7">
</path>
</svg>