<svg xmlns="http://www.w3.org/2000/svg" xmlns:xlink="http://www.w3.org/1999/xlink" width="37.56005859375" height="31.058349609375" viewBox="0 0 37.56005859375 31.058349609375" fill="none">
<path d="M3.40143 21.7978C3.41714 21.6826 3.39096 21.5675 3.32553 21.4706L3.25487 21.3633C1.88605 19.2591 1.14014 16.7988 1.14014 14.2261C1.14014 6.9999 7.00014 1.13989 14.2263 1.13989C21.4525 1.13989 27.3125 6.9999 27.3125 14.2261C27.3125 21.4523 21.4525 27.3123 14.2263 27.3123C12.2608 27.3123 10.3581 26.8778 8.62283 26.056L8.35064 25.9199C8.2381 25.865 8.10723 25.8545 7.98684 25.8964L5.36175 26.7967C4.41169 27.1212 3.37526 26.6161 3.05072 25.6634C2.9565 25.3913 2.93033 25.1007 2.96959 24.8155L3.40143 21.7978Z" stroke="rgba(96, 72, 195, 1)" stroke-width="2.28" fill-rule="evenodd" fill="#FFFFFF">
</path>
<path fill-rule="evenodd" fill="#F3BFFF" d="M33.1432 26.4521C32.9739 26.9492 32.4331 27.2127 31.9375 27.0434L30.5678 26.5737C30.505 26.5518 30.4368 26.5573 30.378 26.5859L30.236 26.657C29.3307 27.0857 28.338 27.3124 27.3125 27.3124C23.5423 27.3124 20.4849 24.255 20.4849 20.4848C20.4849 16.7146 23.5423 13.6572 27.3125 13.6572C31.0826 13.6572 34.14 16.7146 34.14 20.4848C34.14 21.8271 33.7509 23.1107 33.0367 24.2086L32.9998 24.2646C32.9657 24.3151 32.952 24.3752 32.9602 24.4353L33.1855 26.0097C33.206 26.1585 33.1924 26.3101 33.1432 26.4521Z">
</path>
<path fill-rule="evenodd" fill="rgba(255, 255, 255, 1)" d="M36.3786 27.5603C36.3793 27.5585 36.3799 27.5567 36.3805 27.5549C36.6014 26.9088 36.6667 26.2194 36.5711 25.5253L36.5007 25.0334Q37.5601 22.9175 37.5601 20.4848C37.5601 14.8252 32.972 10.2372 27.3125 10.2372C21.6529 10.2372 17.0649 14.8252 17.0649 20.4848C17.0649 26.1444 21.6529 30.7324 27.3125 30.7324Q28.9915 30.7324 30.5838 30.1947L30.8321 30.2799C33.1116 31.0584 35.5896 29.8467 36.3747 27.5718C36.376 27.568 36.3773 27.5642 36.3786 27.5603ZM35.8976 26.0824L35.8564 26.145C35.8704 26.1244 35.8842 26.1035 35.8976 26.0824ZM31.9375 27.0434C32.4331 27.2127 32.9739 26.9492 33.1432 26.4521C33.1924 26.3101 33.206 26.1585 33.1855 26.0097L32.9602 24.4353C32.952 24.3752 32.9657 24.3151 32.9998 24.2646L33.0367 24.2086C33.7509 23.1107 34.14 21.8271 34.14 20.4848C34.14 16.7146 31.0826 13.6572 27.3125 13.6572C23.5423 13.6572 20.4849 16.7146 20.4849 20.4848C20.4849 24.255 23.5423 27.3124 27.3125 27.3124C28.338 27.3124 29.3307 27.0857 30.236 26.657L30.378 26.5859C30.4368 26.5573 30.505 26.5518 30.5678 26.5737L31.9375 27.0434Z">
</path>
<path fill-rule="evenodd" stroke="rgba(96, 72, 195, 1)" stroke-width="2.28" d="M33.1432 26.4521C32.9739 26.9492 32.4331 27.2127 31.9375 27.0434L30.5678 26.5737C30.505 26.5518 30.4368 26.5573 30.378 26.5859L30.236 26.657C29.3307 27.0857 28.338 27.3124 27.3125 27.3124C23.5423 27.3124 20.4849 24.255 20.4849 20.4848C20.4849 16.7146 23.5423 13.6572 27.3125 13.6572C31.0826 13.6572 34.14 16.7146 34.14 20.4848C34.14 21.8271 33.7509 23.1107 33.0367 24.2086L32.9998 24.2646C32.9657 24.3151 32.952 24.3752 32.9602 24.4353L33.1855 26.0097C33.206 26.1585 33.1924 26.3101 33.1432 26.4521Z">
</path>
<path fill="#F3BFFF" d="M12.666 21.421C12.666 22.1571 13.263 22.7541 13.9991 22.7541C14.7352 22.7541 15.3322 22.1571 15.3322 21.421C15.3322 20.6848 14.7352 20.0879 13.9991 20.0879C13.263 20.0879 12.666 20.6848 12.666 21.421Z">
</path>
<path fill-rule="evenodd" fill="rgba(96, 72, 195, 1)" d="M16.7002 21.421C16.7002 19.9292 15.4909 18.7199 13.9991 18.7199C12.5073 18.7199 11.298 19.9292 11.298 21.421C11.298 22.9128 12.5073 24.1221 13.9991 24.1221C15.4909 24.1221 16.7002 22.9128 16.7002 21.421ZM13.9991 22.7541C13.263 22.7541 12.666 22.1571 12.666 21.421C12.666 20.6848 13.263 20.0879 13.9991 20.0879C14.7352 20.0879 15.3322 20.6848 15.3322 21.421C15.3322 22.1571 14.7352 22.7541 13.9991 22.7541Z">
</path>
<path fill="#F3BFFF" d="M13.9264 13.2981C13.419 13.2981 13.0072 13.7099 13.0072 14.2167L13.0072 16.0549C13.0072 16.5627 13.419 16.9745 13.9264 16.9745C14.4338 16.9745 14.8456 16.5627 14.8456 16.0549L14.8456 15.0334C16.6394 14.6246 17.9816 13.0462 17.9816 11.1531C17.9816 8.94927 16.1615 7.1709 13.9264 7.1709C12.5364 7.1709 11.2627 7.86499 10.5195 8.99241C10.3244 9.28848 10.1698 9.60905 10.0607 9.94728C9.9046 10.4296 10.1698 10.9482 10.6526 11.1041C11.1361 11.26 11.6538 10.9953 11.8099 10.512C11.8681 10.3335 11.9509 10.162 12.0553 10.0032C12.4591 9.38945 13.1577 9.00907 13.9264 9.00907C15.1555 9.00907 16.1432 9.97375 16.1432 11.1531C16.1432 12.3335 15.1555 13.2981 13.9264 13.2981Z">
</path>
<path fill-rule="evenodd" fill="rgba(96, 72, 195, 1)" d="M13.9264 10.3771Q14.7752 10.3771 14.7752 11.1531Q14.7752 11.9301 13.9264 11.9301C12.6635 11.9301 11.6392 12.9539 11.6392 14.2167L11.6392 16.0549C11.6392 17.3181 12.6632 18.3425 13.9264 18.3425C15.1898 18.3425 16.2136 17.3183 16.2136 16.0549L16.2136 16.0461Q19.3496 14.8315 19.3496 11.1531C19.3496 8.15795 16.9216 5.8029 13.9264 5.8029Q10.9836 5.8029 9.37736 8.2395C9.11409 8.63891 8.90569 9.07198 8.75881 9.52722C8.3701 10.7281 9.02979 12.0176 10.2322 12.4059C11.4346 12.7936 12.7236 12.134 13.1117 10.9325C13.1316 10.8716 13.1615 10.8108 13.1986 10.7543Q13.4469 10.3771 13.9264 10.3771ZM14.8456 15.0334L14.8456 16.0549C14.8456 16.5627 14.4338 16.9745 13.9264 16.9745C13.419 16.9745 13.0072 16.5627 13.0072 16.0549L13.0072 14.2167C13.0072 13.7099 13.419 13.2981 13.9264 13.2981C15.1555 13.2981 16.1432 12.3335 16.1432 11.1531C16.1432 9.97375 15.1555 9.00907 13.9264 9.00907C13.1577 9.00907 12.4591 9.38945 12.0553 10.0032C11.9509 10.162 11.8681 10.3335 11.8099 10.512C11.6538 10.9953 11.1361 11.26 10.6526 11.1041C10.1698 10.9482 9.9046 10.4296 10.0607 9.94728C10.1698 9.60905 10.3244 9.28848 10.5195 8.99241C11.2627 7.86499 12.5364 7.1709 13.9264 7.1709C16.1615 7.1709 17.9816 8.94927 17.9816 11.1531C17.9816 13.0462 16.6394 14.6246 14.8456 15.0334Z">
</path>
</svg>