<svg xmlns="http://www.w3.org/2000/svg" xmlns:xlink="http://www.w3.org/1999/xlink" width="34.64990234375" height="29.53759765625" viewBox="0 0 34.64990234375 29.53759765625" fill="none">
<path d="M32.8005 21.0969C32.8005 18.9838 30.5773 17.4015 28.3133 16.2068C27.1122 15.5735 26.0777 14.6868 24.9655 14.6868C21.8238 14.6868 20.5622 16.6229 20.4561 19.7635C20.4536 19.8301 21.1906 20.6251 21.1906 20.6928C21.1906 23.9263 22.8287 25.6069 26.037 25.6069C29.2453 25.6069 32.8005 24.3303 32.8005 21.0969Z" fill="#F3BFFF">
</path>
<path d="M31.7165 15.8801C30.7726 15.3352 29.666 15.1657 28.4926 15.379C27.7995 14.1036 26.3828 12.9246 24.118 12.9246C22.6163 12.9362 21.2817 13.62 20.3575 14.8458C19.2312 16.3389 18.792 18.5274 19.2631 20.2865C19.821 22.3625 20.4214 23.8016 22.5144 26.8434C22.8169 27.2817 23.3003 27.5344 23.8171 27.5344C23.8961 27.5344 23.9721 27.5286 24.0481 27.5154C27.9697 26.9369 30.0521 25.9493 31.718 24.9689C34.0178 23.6161 34.6501 20.8767 34.0786 18.9716C33.8764 18.2031 33.1605 16.7158 31.7165 15.8801ZM30.5566 22.9567C31.7907 22.231 32.1905 20.6966 31.8658 19.6338C31.7918 19.347 31.4026 18.3831 30.5682 17.9016C30.0024 17.5733 29.3351 17.5288 28.5302 17.7622C27.7339 17.9935 26.8868 17.5634 26.5991 16.7853C26.4659 16.4235 25.9001 15.2549 24.1392 15.2549C23.3492 15.2608 22.6956 15.5969 22.2028 16.2534C21.4255 17.2846 21.2605 18.7874 21.4995 19.6792C21.9923 21.5162 22.4852 22.6661 24.1614 25.1417C27.405 24.6157 29.1542 23.7823 30.5566 22.9567Z" fill-rule="evenodd" fill="#6048C3">
</path>
<path d="M29.0683 12.8733C29.0014 13.4448 29.3456 13.9938 29.904 14.1539C30.4623 14.3142 31.045 14.0312 31.2909 13.511L29.0683 12.8733Z" fill="#6048C3">
</path>
<path d="M31.2908 13.5121C32.7517 8.52479 30.0059 3.86514 26.6946 1.95721C25.4976 1.20042 22.4565 -1.43647e-05 19.318 0.75678C16.9774 1.3193 15.0579 2.81839 13.6096 5.20766C12.3309 4.61614 7.63099 2.91118 3.33948 7.25187C1.03665 9.58314 -9.86755e-05 12.3494 0.3392 15.246C0.829299 19.407 3.89556 22.6777 6.37432 24.2145C10.1946 26.5835 20.716 29.512 20.716 29.512L21.1967 27.2475C21.1967 27.2475 11.2408 24.4987 7.58072 22.2283C5.38156 20.8655 3.00018 18.0935 2.63261 14.9706C2.37499 12.7756 3.16355 10.7285 4.97629 8.89884C8.29074 5.53821 11.7748 6.88652 12.7613 7.37945C13.7384 7.86948 14.9448 7.50123 15.504 6.55017C16.6318 4.63354 18.0958 3.4447 19.852 3.02136C22.3528 2.42115 24.7624 3.4795 25.5322 3.96953C28.1177 5.44832 30.1535 9.1656 29.0697 12.8742L31.2908 13.5121Z" fill="#6048C3">
</path>
<path d="M20.7124 29.5106C21.2869 29.5376 21.8101 29.1556 21.9309 28.5872C22.0516 28.0186 21.7289 27.4568 21.1931 27.2476L20.7124 29.5106Z" fill="#6048C3">
</path>
<path fill="#F3BFFF" d="M5.67337 11.0807C4.24915 13.577 4.72274 16.361 7.07536 19.2831C7.48618 19.7934 8.24477 19.8029 8.70783 19.3395L8.70783 19.3395C9.147 18.9 9.14791 18.1883 8.75999 17.703C6.75384 15.1932 6.95621 13.5553 7.48208 12.5158C7.76191 11.9627 7.72942 11.2777 7.2611 10.8715C6.7661 10.4423 5.99808 10.5116 5.67337 11.0807Z">
</path>
<path d="M9.38435 20.0774C9.79494 19.6663 9.83013 19.0191 9.49459 18.5518L7.85986 20.1879C8.32687 20.5235 8.97358 20.4883 9.38435 20.0774Z" fill="#F3BFFF">
</path>
<path d="M7.88252 10.0888C7.44426 9.70751 6.7965 9.71757 6.354 10.0852L8.09915 11.6029C8.40107 11.1133 8.32097 10.4702 7.88252 10.0888Z" fill="#F3BFFF">
</path>
</svg>