<svg xmlns="http://www.w3.org/2000/svg" xmlns:xlink="http://www.w3.org/1999/xlink" width="34.1044921875" height="33" viewBox="0 0 34.1044921875 33" fill="none">
<path fill="#FFFFFF" d="M4 1L17 1C18.6569 1 20 2.34315 20 4L20 33L4 33C2.34315 33 1 31.6569 1 30L1 4C1 2.34315 2.34315 1 4 1Z">
</path>
<path fill-rule="evenodd" fill="rgba(243, 191, 255, 1)" d="M17 1L4 1C2.34315 1 1 2.34315 1 4L1 30C1 31.6569 2.34315 33 4 33L20 33L20 4C20 2.34315 18.6569 1 17 1ZM18 31L18 4C18 3.44772 17.5523 3 17 3L4 3C3.44772 3 3 3.44772 3 4L3 30C3 30.5523 3.44772 31 4 31L18 31Z">
</path>
<path fill-rule="evenodd" fill="rgba(96, 72, 195, 1)" d="M16 0L3 0C1.34315 0 0 1.34315 0 3L0 30C0 31.6569 1.34315 33 3 33L19 33L19 3C19 1.34315 17.6569 0 16 0ZM17 31L17 3C17 2.44772 16.5523 2 16 2L3 2C2.44772 2 2 2.44772 2 3L2 30C2 30.5523 2.44772 31 3 31L17 31Z">
</path>
<path d="M19.437 10.1886L33.345 15.8076C33.8571 16.0145 34.1045 16.5973 33.8976 17.1094C33.6907 17.6215 33.1079 17.8689 32.5958 17.662L18.6878 12.043C18.1757 11.8361 17.9283 11.2533 18.1352 10.7412C18.3421 10.2291 18.9249 9.98172 19.437 10.1886ZM29 31L29 18C29 17.4477 29.4477 17 30 17C30.5523 17 31 17.4477 31 18L31 31C31.5523 31 32 31.4477 32 32C32 32.5523 31.5523 33 31 33L13 33C12.4477 33 12 32.5523 12 32C12 31.4477 12.4477 31 13 31L29 31ZM19 20L23 20C23.5523 20 24 20.4477 24 21C24 21.5523 23.5523 22 23 22L19 22C18.4477 22 18 21.5523 18 21C18 20.4477 18.4477 20 19 20ZM19 25L23 25C23.5523 25 24 25.4477 24 26C24 26.5523 23.5523 27 23 27L19 27C18.4477 27 18 26.5523 18 26C18 25.4477 18.4477 25 19 25Z" fill-rule="evenodd" fill="#6048C3">
</path>
<rect x="5" y="13" width="4" height="4" rx="1" fill="#F3BFFF">
</rect>
<path fill="rgba(96, 72, 195, 1)" d="M6 12.5L8 12.5C8.82843 12.5 9.5 13.1716 9.5 14L9.5 16C9.5 16.8284 8.82843 17.5 8 17.5L6 17.5C5.17157 17.5 4.5 16.8284 4.5 16L4.5 14C4.5 13.1716 5.17157 12.5 6 12.5ZM6 13.5C5.72386 13.5 5.5 13.7239 5.5 14L5.5 16C5.5 16.2761 5.72386 16.5 6 16.5L8 16.5C8.27614 16.5 8.5 16.2761 8.5 16L8.5 14C8.5 13.7239 8.27614 13.5 8 13.5L6 13.5Z">
</path>
<rect x="11" y="13" width="4" height="4" rx="1" fill="#F3BFFF">
</rect>
<path fill="rgba(96, 72, 195, 1)" d="M12 12.5L14 12.5C14.8284 12.5 15.5 13.1716 15.5 14L15.5 16C15.5 16.8284 14.8284 17.5 14 17.5L12 17.5C11.1716 17.5 10.5 16.8284 10.5 16L10.5 14C10.5 13.1716 11.1716 12.5 12 12.5ZM12 13.5C11.7239 13.5 11.5 13.7239 11.5 14L11.5 16C11.5 16.2761 11.7239 16.5 12 16.5L14 16.5C14.2761 16.5 14.5 16.2761 14.5 16L14.5 14C14.5 13.7239 14.2761 13.5 14 13.5L12 13.5Z">
</path>
<rect x="11" y="6" width="4" height="4" rx="1" fill="#F3BFFF">
</rect>
<path fill="rgba(96, 72, 195, 1)" d="M12 5.5L14 5.5C14.8284 5.5 15.5 6.17157 15.5 7L15.5 9C15.5 9.82843 14.8284 10.5 14 10.5L12 10.5C11.1716 10.5 10.5 9.82843 10.5 9L10.5 7C10.5 6.17157 11.1716 5.5 12 5.5ZM12 6.5C11.7239 6.5 11.5 6.72386 11.5 7L11.5 9C11.5 9.27614 11.7239 9.5 12 9.5L14 9.5C14.2761 9.5 14.5 9.27614 14.5 9L14.5 7C14.5 6.72386 14.2761 6.5 14 6.5L12 6.5Z">
</path>
<rect x="5" y="6" width="4" height="4" rx="1" fill="#F3BFFF">
</rect>
<path fill="rgba(96, 72, 195, 1)" d="M6 5.5L8 5.5C8.82843 5.5 9.5 6.17157 9.5 7L9.5 9C9.5 9.82843 8.82843 10.5 8 10.5L6 10.5C5.17157 10.5 4.5 9.82843 4.5 9L4.5 7C4.5 6.17157 5.17157 5.5 6 5.5ZM6 6.5C5.72386 6.5 5.5 6.72386 5.5 7L5.5 9C5.5 9.27614 5.72386 9.5 6 9.5L8 9.5C8.27614 9.5 8.5 9.27614 8.5 9L8.5 7C8.5 6.72386 8.27614 6.5 8 6.5L6 6.5Z">
</path>
<rect x="5" y="20" width="4" height="4" rx="1" fill="#F3BFFF">
</rect>
<path fill="rgba(96, 72, 195, 1)" d="M6 19.5L8 19.5C8.82843 19.5 9.5 20.1716 9.5 21L9.5 23C9.5 23.8284 8.82843 24.5 8 24.5L6 24.5C5.17157 24.5 4.5 23.8284 4.5 23L4.5 21C4.5 20.1716 5.17157 19.5 6 19.5ZM6 20.5C5.72386 20.5 5.5 20.7239 5.5 21L5.5 23C5.5 23.2761 5.72386 23.5 6 23.5L8 23.5C8.27614 23.5 8.5 23.2761 8.5 23L8.5 21C8.5 20.7239 8.27614 20.5 8 20.5L6 20.5Z">
</path>
</svg>