<svg xmlns="http://www.w3.org/2000/svg" xmlns:xlink="http://www.w3.org/1999/xlink" width="11.99951171875" height="13.80029296875" viewBox="0 0 11.99951171875 13.80029296875" fill="none">
<path d="M0 5.99976C0 7.62882 0.600582 9.17134 1.80055 10.2853C1.88516 10.3718 5.31467 13.4569 5.40047 13.5434C5.74247 13.8003 6.25725 13.8003 6.51464 13.5434C6.60044 13.4569 10.1146 10.3718 10.1146 10.2853C11.3145 9.17134 11.9139 7.62882 11.9139 5.99976C11.9997 2.65649 9.34238 0 5.99986 0C2.65734 0 0 2.65649 0 5.99976ZM5.99989 4.2859C6.94274 4.2859 7.71417 5.05733 7.71417 6.00019C7.71417 6.94304 6.94274 7.71447 5.99989 7.71447C5.05703 7.71447 4.2856 6.94304 4.2856 6.00019C4.2856 5.05733 5.05703 4.2859 5.99989 4.2859Z" fill-rule="evenodd" fill="#6979F8">
</path>
</svg>