<svg xmlns="http://www.w3.org/2000/svg" xmlns:xlink="http://www.w3.org/1999/xlink" width="12.08984375" height="12.037109375" viewBox="0 0 12.08984375 12.037109375" fill="none">
<path d="M6.04443 9.7212L9.31203 11.8992C9.52083 12.0372 9.79443 12.0312 9.99723 11.8836C10.2 11.736 10.29 11.4768 10.2216 11.2356L9.12483 7.3956L11.8464 4.9464C12.024 4.7856 12.09 4.5348 12.0132 4.308C11.9352 4.0812 11.7312 3.9216 11.4924 3.9024L8.07123 3.6312L6.59163 0.354C6.49443 0.1392 6.28083 0 6.04443 0C5.80803 0 5.59443 0.138 5.49843 0.354L4.01763 3.6312L0.597634 3.9024C0.362434 3.9216 0.159634 4.0752 0.0804336 4.2972C3.35947e-05 4.518 0.0576336 4.7664 0.225634 4.9296L2.75403 7.3944L1.86003 11.2644C1.80363 11.5044 1.90083 11.754 2.10243 11.8932C2.30523 12.0336 2.57283 12.036 2.77803 11.8992L6.04443 9.7212Z" fill="#FFFFFF">
</path>
</svg>