<svg xmlns="http://www.w3.org/2000/svg" xmlns:xlink="http://www.w3.org/1999/xlink" width="53.12939453125" height="42.490478515625" viewBox="0 0 53.12939453125 42.490478515625" fill="none">
<path d="M20.0321 6.92308C19.5511 6.92308 19.1611 6.53538 19.1611 6.05769L19.1611 0.865385C19.1611 0.387692 19.5511 0 20.0321 0C20.513 0 20.903 0.387692 20.903 0.865385L20.903 6.05769C20.903 6.53538 20.513 6.92308 20.0321 6.92308ZM9.58198 10.7441C9.92602 11.0778 10.4775 11.0714 10.8133 10.7296C11.1496 10.3879 11.1431 9.84005 10.799 9.50578L7.05352 5.87127C6.70948 5.53754 6.15803 5.54398 5.82222 5.88576C5.48586 6.22753 5.49244 6.77534 5.83648 7.1096L9.58198 10.7441ZM29.2657 9.50578C28.9216 9.84005 28.9151 10.3879 29.2514 10.7296C29.5872 11.0714 30.1387 11.0778 30.4827 10.7441L34.2282 7.1096C34.5723 6.77534 34.5788 6.22753 34.2425 5.88576C33.9067 5.54398 33.3552 5.53754 33.0112 5.87127L29.2657 9.50578ZM22.7324 28.1245C19.181 29.2703 15.2901 28.0396 13.0582 25.0643C10.8281 22.0906 10.7533 18.0334 12.8737 14.9801C14.9941 11.9251 18.838 10.5543 22.4295 11.572C26.0209 12.5881 28.5592 15.766 28.7419 19.4718L22.7324 28.1245ZM0 19.904C0 19.4261 0.390194 19.0386 0.870968 19.0386L6.09677 19.0386C6.57755 19.0386 6.96774 19.4261 6.96774 19.904C6.96774 20.3819 6.57755 20.7694 6.09677 20.7694L0.870968 20.7694C0.390194 20.7694 0 20.3819 0 19.904ZM5.82935 32.7919C5.48915 33.1299 5.48915 33.6778 5.82935 34.0158C6.16955 34.3538 6.721 34.3538 7.0612 34.0158L10.8061 30.2949C11.1463 29.9569 11.1463 29.4089 10.8061 29.0709C10.4659 28.7329 9.91449 28.7329 9.57429 29.0709L5.82935 32.7919Z" fill-rule="evenodd" fill="#F8AA1C">
</path>
<path d="M32.1131 18.2647C26.9089 19.1129 22.9847 23.4174 22.6436 28.6432L21.7737 28.6432C17.9261 28.6432 14.8066 31.7436 14.8066 35.568C14.8066 39.3899 17.9261 42.4903 21.7737 42.4903L44.4185 42.4903C49.228 42.4903 53.1292 38.6148 53.1292 33.8374C53.1292 29.0576 49.228 25.1821 44.4185 25.0968C42.4181 20.2487 37.3135 17.4164 32.1131 18.2647Z" fill="#FFFFFF">
</path>
</svg>