<svg xmlns="http://www.w3.org/2000/svg" xmlns:xlink="http://www.w3.org/1999/xlink" width="37.333984375" height="28.06689453125" viewBox="0 0 37.333984375 28.06689453125" fill="none">
<path d="M30.3342 9.38685C30.9781 9.38685 31.5009 8.86407 31.5009 8.22016C31.5009 7.57624 30.9781 7.05347 30.3342 7.05347C29.6903 7.05347 29.1675 7.57624 29.1675 8.22016C29.1675 8.86407 29.6903 9.38685 30.3342 9.38685Z" fill="#E0EBFE">
</path>
<path d="M7.00004 22.8038C7.96591 22.8038 8.75007 22.0196 8.75007 21.0537C8.75007 20.0879 7.96591 19.3037 7.00004 19.3037C6.03416 19.3037 5.25 20.0879 5.25 21.0537C5.25 22.0196 6.03416 22.8038 7.00004 22.8038Z" fill="#F3BFFF">
</path>
<path d="M9.91687 2.34481L1.4677 0.0930961C1.11751 6.7886e-05 0.743969 0.0748542 0.456584 0.295533C0.1692 0.516211 0.000523361 0.857782 0 1.22012L0 24.5539C7.6569e-05 25.0823 0.355216 25.5446 0.865685 25.681L9.61587 28.0143C9.8142 28.0668 10.0207 28.0668 10.2179 28.0143L18.6671 25.7626L27.1162 28.0143C27.3135 28.0667 27.521 28.0667 27.7182 28.0143L36.4684 25.681C36.9789 25.5446 37.334 25.0823 37.3341 24.5539L37.3341 1.22012C37.3336 0.857782 37.1649 0.516211 36.8775 0.295533C36.5901 0.0748542 36.2166 6.7886e-05 35.8664 0.0930961L27.4172 2.34481L18.9681 0.0930961C18.7708 0.0405945 18.5633 0.0405945 18.366 0.0930961L9.91687 2.34481ZM10.218 4.68043C10.0208 4.73293 9.81432 4.73293 9.61598 4.68043L2.3335 2.73906L2.3335 23.659L9.91699 25.6785L18.3662 23.4268C18.5634 23.3744 18.7709 23.3744 18.9682 23.4268L27.4174 25.6797L35.0008 23.6578L35.0008 2.73906L27.7184 4.68043C27.5212 4.73293 27.3147 4.73293 27.1164 4.68043L18.6672 2.42872L10.218 4.68043Z" fill-rule="evenodd" fill="#6048C3">
</path>
<path d="M6.93332 23.5209C5.46263 23.5209 4.2666 22.3249 4.2666 20.8542C4.2666 19.3835 5.46263 18.1875 6.93332 18.1875C8.40402 18.1875 9.60005 19.3835 9.60005 20.8542C9.60005 22.3249 8.40402 23.5209 6.93332 23.5209ZM6.93346 19.5208C7.66814 19.5208 8.26682 20.1195 8.26682 20.8542C8.26682 21.5888 7.66814 22.1875 6.93346 22.1875C6.19878 22.1875 5.6001 21.5888 5.6001 20.8542C5.6001 20.1195 6.19878 19.5208 6.93346 19.5208Z" fill-rule="evenodd" fill="#6048C3">
</path>
<path d="M30.3306 8.22138L30.3412 9.38691L30.3412 8.22021L30.3306 8.22138Z" stroke="rgba(243, 191, 255, 1)" stroke-width="0.6" fill="#F3BFFF">
</path>
<path d="M12.6875 10.7481C12.7255 10.5363 12.6438 10.3208 12.4751 10.1875C12.3063 10.0541 12.0778 10.0244 11.8805 10.1102C11.5375 10.2386 11.2073 10.3949 10.8982 10.5734L10.7348 10.6703C10.4605 10.839 10.3748 11.1986 10.5435 11.4729C10.7122 11.7473 11.0719 11.833 11.3462 11.6643L11.4792 11.5849C11.7359 11.4379 12.0089 11.3084 12.2935 11.1999C12.4981 11.1335 12.6496 10.9598 12.6875 10.7481Z" stroke="rgba(243, 191, 255, 1)" stroke-width="0.6" fill="#F3BFFF">
</path>
<path d="M8.1647 17.0218C8.1962 16.6659 8.25454 16.3078 8.33971 15.9566C8.39727 15.6505 8.20474 15.3531 7.90194 15.2802C7.59914 15.2074 7.29241 15.3848 7.20452 15.6836C7.10705 16.0903 7.03958 16.5036 7.00268 16.9203C6.97505 17.2407 7.21199 17.523 7.53236 17.5514C7.85323 17.5798 8.13631 17.3426 8.1647 17.0218Z" stroke="rgba(243, 191, 255, 1)" stroke-width="0.6" fill="#F3BFFF">
</path>
<path d="M14.4296 9.646L14.3689 9.646C14.0469 9.646 13.8159 9.90734 13.8159 10.2293C13.8159 10.5513 14.1076 10.8127 14.4296 10.8127C14.7679 10.8127 15.1039 10.8419 15.4306 10.8979C15.7429 10.9423 16.034 10.7304 16.0876 10.4195C16.1413 10.1087 15.9381 9.81149 15.629 9.74866C15.2328 9.68039 14.8316 9.64604 14.4296 9.646Z" stroke="rgba(243, 191, 255, 1)" stroke-width="0.6" fill="#F3BFFF">
</path>
<path d="M8.13222 13.3677C8.02718 13.5478 8.02619 13.7702 8.12961 13.9512C8.23303 14.1322 8.42516 14.2443 8.63362 14.2452C8.84208 14.2461 9.0352 14.1358 9.14024 13.9557C9.32042 13.6457 9.52484 13.3503 9.75159 13.0725C9.95538 12.823 9.91827 12.455 9.66875 12.2512C9.41923 12.0474 9.0512 12.0845 8.8474 12.334C8.58723 12.6537 8.34572 13.0014 8.13222 13.3677Z" stroke="rgba(243, 191, 255, 1)" stroke-width="0.6" fill="#F3BFFF">
</path>
<path d="M23.3711 14.5776C23.1659 14.5407 22.9565 14.6161 22.8219 14.7755C22.6873 14.9348 22.648 15.1538 22.7186 15.35C22.7893 15.5463 22.9594 15.6899 23.1646 15.7268C23.559 15.7968 23.9627 15.8329 24.441 15.8329L24.4445 15.8329C24.7642 15.8248 24.9858 15.5611 24.9812 15.2426C24.9765 14.9241 24.6872 14.6674 24.3687 14.6674C24.035 14.6674 23.699 14.6371 23.3711 14.5776Z" stroke="rgba(243, 191, 255, 1)" stroke-width="0.6" fill="#F3BFFF">
</path>
<path d="M29.5398 11.2462C29.3954 11.302 29.2791 11.413 29.2165 11.5546C29.1127 11.79 28.9902 12.0167 28.8501 12.2325C28.6851 12.5019 28.7646 12.8539 29.0295 13.0262C29.2945 13.1985 29.6484 13.1285 29.8278 12.8683C30.0028 12.6 30.1557 12.3176 30.2852 12.0259C30.3479 11.8843 30.3516 11.7234 30.2956 11.579C30.2395 11.4345 30.1283 11.3183 29.9865 11.2559L29.9865 11.2571C29.8449 11.1943 29.6842 11.1904 29.5398 11.2462Z" stroke="rgba(243, 191, 255, 1)" stroke-width="0.6" fill="#F3BFFF">
</path>
<path d="M17.6954 11.8954C17.8645 12.0307 18.022 12.1754 18.1749 12.3259C18.2846 12.4354 18.4335 12.4963 18.5885 12.4952C18.7435 12.4941 18.8916 12.4311 18.9997 12.3201C19.2259 12.0907 19.2232 11.7214 18.9939 11.4952C18.8135 11.3159 18.6239 11.1461 18.4257 10.9865L18.4257 10.9854C18.2921 10.8774 18.1535 10.7758 18.0104 10.6809C17.7419 10.5031 17.3796 10.5769 17.2019 10.8454C17.0241 11.1139 17.0978 11.4762 17.3664 11.6539C17.4784 11.7285 17.588 11.8091 17.6954 11.8954Z" stroke="rgba(243, 191, 255, 1)" stroke-width="0.6" fill="#F3BFFF">
</path>
<path d="M26.1614 15.0029C26.2893 15.2986 26.6327 15.4347 26.9285 15.3068C27.3181 15.1376 27.6938 14.9288 28.0462 14.6884C28.2181 14.5705 28.314 14.3697 28.2978 14.1619C28.2817 13.954 28.1558 13.7705 27.9677 13.6806C27.7795 13.5907 27.5577 13.6079 27.3858 13.7259C27.0953 13.9254 26.7861 14.0969 26.4641 14.2358L26.4653 14.2358C26.1695 14.3637 26.0335 14.7071 26.1614 15.0029Z" stroke="rgba(243, 191, 255, 1)" stroke-width="0.6" fill="#F3BFFF">
</path>
<path d="M20.5832 13.1869C20.4332 13.036 20.2131 12.9786 20.0086 13.0372C19.8041 13.0958 19.6477 13.2611 19.6005 13.4685C19.5533 13.6759 19.6227 13.8926 19.7816 14.0339C20.091 14.3292 20.4295 14.5922 20.792 14.8191C21.0652 14.9902 21.4253 14.9074 21.5964 14.6342C21.7675 14.361 21.6847 14.0008 21.4115 13.8297L21.4115 13.8321C21.1138 13.6463 20.8362 13.4301 20.5832 13.1869Z" stroke="rgba(243, 191, 255, 1)" stroke-width="0.6" fill="#F3BFFF">
</path>
<path fill="#F3BFFF" d="M33.0673 8.05393C33.0673 6.58323 31.8713 5.38721 30.4006 5.38721C28.9299 5.38721 27.7339 6.58323 27.7339 8.05393C27.7339 9.52463 28.9299 10.7207 30.4006 10.7207C31.8713 10.7207 33.0673 9.52463 33.0673 8.05393Z">
</path>
<path fill-rule="evenodd" fill="rgba(111, 92, 190, 1)" d="M30.4006 5.38721C31.8713 5.38721 33.0673 6.58323 33.0673 8.05393C33.0673 9.52463 31.8713 10.7207 30.4006 10.7207C28.9299 10.7207 27.7339 9.52463 27.7339 8.05393C27.7339 6.58323 28.9299 5.38721 30.4006 5.38721ZM30.4006 6.58721C31.2107 6.58721 31.8673 7.24388 31.8673 8.05393C31.8673 8.86398 31.2107 9.52065 30.4006 9.52065C29.5906 9.52065 28.9339 8.86398 28.9339 8.05393C28.9339 7.24388 29.5906 6.58721 30.4006 6.58721Z">
</path>
</svg>